ply
format ascii 1.0
comment Created by Blender 2.91.0 - www.blender.org
element vertex 18
property float x
property float y
property float z
element face 6
property list uchar uint vertex_indices
end_header
0.132880 0.000000 0.057735
0.132880 0.050000 0.028868
0.094514 -0.000000 0.000000
0.132880 0.050000 0.028868
0.132880 0.050000 -0.028868
0.094514 -0.000000 0.000000
0.132880 0.050000 -0.028868
0.132880 -0.000000 -0.057735
0.094514 -0.000000 0.000000
0.132880 -0.000000 -0.057735
0.132880 -0.050000 -0.028867
0.094514 -0.000000 0.000000
0.132880 -0.050000 -0.028867
0.132880 -0.050000 0.028868
0.094514 -0.000000 0.000000
0.132880 -0.050000 0.028868
0.132880 0.000000 0.057735
0.094514 -0.000000 0.000000
3 0 1 2
3 3 4 5
3 6 7 8
3 9 10 11
3 12 13 14
3 15 16 17
